{"title":"TPB AFK-Rip.Mkv H.264-HD.1080p-Remastered[)(]DTS-5.1-Swedish+(US","uid":8124853,"size":9378752633,"categoryP":"video","categoryS":"hd___movies","magnet":"?xt=urn:btih:e36408aae6761959123b1b2e9d65fe9b7f228210&amp;dn=TPB+AFK-Rip.Mkv+H.264-HD.1080p-Remastered%5B%29%28%5DDTS-5.1-Swedish%2B%28US&amp;tr=udp%3A%2F%2Ftracker.openbittorrent.com%3A80&amp;tr=udp%3A%2F%2Fopen.demonii.com%3A1337&amp;tr=udp%3A%2F%2Ftracker.coppersurfer.tk%3A6969&amp;tr=udp%3A%2F%2Fexodus.desync.com%3A6969","seeders":2,"leechers":0,"uploader":"Tyr3ll","files":-1,"time":1360471609,"description":"Original version of TPB AFK as remastered edition to DTS-5.1/96 Khz/6-channels\n\nSpoken language : Swedish\n\nSubtitle : English \n\nFull details :\n\nGeneral :\n\n\n    Complete name : TPB AFK-Rip.Mkv H.264-HD.1080p-Remastered[)(]DTS-5.1-Swedish+(US_sub).mkv\n\n    Format : Matroska\n    Format version : Version 2\n    File size : 8.73 GiB\n    Duration : 1h 22mn\n    Overall bit rate mode : Variable\n    Overall bit rate : 15.2 Mbps\n    Writing application : Lavf51.12.1\n    Writing library : Lavf51.12.1\n\n  Video #1\n    ID : 1\n    Format : AVC\n    Format/Info : Advanced Video Codec\n    Format profile : &lt;a class=&quot;__cf_email__&quot; href=&quot;/cdn-cgi/l/email-protection&quot; data-cfemail=&quot;c082a1b3a5aca9aea5808cf4eef0&quot;&gt;[email&amp;#160;protected]&lt;/a&gt;&lt;script cf-hash='f9e31' type=&quot;text/javascript&quot;&gt;\n/* &lt;![CDATA[ */!function(){try{var t=&quot;currentScript&quot;in document?document.currentScript:function(){for(var t=document.getElementsByTagName(&quot;script&quot;),e=t.length;e--;)if(t[e].getAttribute(&quot;cf-hash&quot;))return t[e]}();if(t&amp;&amp;t.previousSibling){var e,r,n,i,c=t.previousSibling,a=c.getAttribute(&quot;data-cfemail&quot;);if(a){for(e=&quot;&quot;,r=parseInt(a.substr(0,2),16),n=2;a.length-n;n+=2)i=parseInt(a.substr(n,2),16)^r,e+=String.fromCharCode(i);e=document.createTextNode(e),c.parentNode.replaceChild(e,c)}}}catch(u){}}();/* ]]&gt; */&lt;/script&gt;\n    Format settings, CABAC : No\n    Format settings, ReFrames : 1 frame\n    Format settings, GOP : M=1, N=12\n    Codec ID : V_MPEG4/ISO/AVC\n    Duration : 1h 22mn\n    Bit rate mode : Variable\n    Bit rate : 6 989 Kbps\n    Maximum bit rate : 10.5 Mbps\n    Width : 1 920 pixels\n    Height : 1 080 pixels\n    Display aspect ratio : 16:9\n    Frame rate mode : Constant\n    Frame rate : 25.000 fps\n    Original frame rate : 24.000 fps\n    Color space : YUV\n    Chroma subsampling : 4:2:0\n    Bit depth : 8 bits\n    Scan type : Progressive\n    Bits/(Pixel*Frame) : 0.135\n    Stream size : 4.01 GiB (46%)\n    Default : Yes\n    Forced : No\n\n  Audio #2\n    ID : 2\n    Format : DTS\n    Format/Info : Digital Theater Systems\n    Mode : 16\n    Format settings, Endianness : Big\n    Codec ID : A_DTS\n    Duration : 1h 22mn\n    Bit rate mode : Constant\n    Bit rate : 7 937 Kbps\n    Channel(s) : 6 channels\n    Channel positions : Front: L C R, Side: L R, LFE\n    Sampling rate : 96.0 KHz\n    Bit depth : 16 bits\n    Compression mode : Lossy\n    Stream size : 4.55 GiB (52%)\n    Default : Yes\n    Forced : No\n\nGood quality between video and sound for sure.\n\nDedicated to TPB staff or team and to all registered members and even much more.\n\nenjoy and seed,please.\n\nSincerely yours","torrent":{"xt":"urn:btih:e36408aae6761959123b1b2e9d65fe9b7f228210","amp;dn":"TPB+AFK-Rip.Mkv+H.264-HD.1080p-Remastered%5B%29%28%5DDTS-5.1-Swedish%2B%28US","amp;tr":["udp%3A%2F%2Ftracker.openbittorrent.com%3A80","udp%3A%2F%2Fopen.demonii.com%3A1337","udp%3A%2F%2Ftracker.coppersurfer.tk%3A6969","udp%3A%2F%2Fexodus.desync.com%3A6969"],"infoHash":"e36408aae6761959123b1b2e9d65fe9b7f228210","infoHashBuffer":{"type":"Buffer","data":[227,100,8,170,230,118,25,89,18,59,27,46,157,101,254,155,127,34,130,16]},"announce":[],"urlList":[]}}